<?xml version="1.0" encoding="UTF-8" standalone="no" ?>
<!DOCTYPE svg PUBLIC "-//W3C//DTD SVG 1.1//EN" "http://www.w3.org/Graphics/SVG/1.1/DTD/svg11.dtd">
<svg xmlns="http://www.w3.org/2000/svg" xmlns:xlink="http://www.w3.org/1999/xlink" version="1.1" width="1080" height="1080" viewBox="0 0 1080 1080" xml:space="preserve">
<desc>Created with Fabric.js 5.2.4</desc>
<defs>
</defs>
<rect x="0" y="0" width="100%" height="100%" fill="transparent"></rect>
<g transform="matrix(1 0 0 1 540 540)" id="f9d8f253-ffad-4838-bebc-16b10a7e5758"  >
<rect style="stroke: none; stroke-width: 1; stroke-dasharray: none; stroke-linecap: butt; stroke-dashoffset: 0; stroke-linejoin: miter; stroke-miterlimit: 4; fill: rgb(255,255,255); fill-rule: nonzero; opacity: 1; visibility: hidden;" vector-effect="non-scaling-stroke"  x="-540" y="-540" rx="0" ry="0" width="1080" height="1080" />
</g>
<g transform="matrix(0 0 0 0 0 0)" id="4746daa2-21b0-4d86-ae4b-9e7362b73098"  >
</g>
<g transform="matrix(6.39 0 0 6.39 540 540)"  >
<path style="stroke: none; stroke-width: 1; stroke-dasharray: none; stroke-linecap: butt; stroke-dashoffset: 0; stroke-linejoin: miter; stroke-miterlimit: 4; fill: rgb(0,0,0); fill-rule: nonzero; opacity: 1;" vector-effect="non-scaling-stroke"  transform=" translate(-295.08, -272.87)" d="M 356 301.9 C 355.9 301 355.1 294.9 345.5 292.9 C 335.9 290.9 331.7 292.2 322.4 295.2 C 313.2 298.2 306 304.9 295.29999999999995 313.4 C 287.19999999999993 319.9 279.49999999999994 324.2 268.9 322.2 C 258.4 320.3 248.99999999999997 314.59999999999997 242.59999999999997 305.9 C 241.39999999999998 304.29999999999995 240.09999999999997 302.4 240.59999999999997 300.29999999999995 C 241.19999999999996 298.19999999999993 243.09999999999997 298.4 244.09999999999997 298.4 C 244.99999999999997 298.4 248.79999999999995 299.79999999999995 252.19999999999996 301 C 255.69999999999996 302.2 262.59999999999997 305.9 269.59999999999997 308.7 C 276.59999999999997 311.5 285.4 311 289.7 309.8 C 294 308.6 297.7 306.6 303.59999999999997 301.1 C 309.49999999999994 295.6 312.49999999999994 286.3 313.9 281.90000000000003 C 315.29999999999995 277.40000000000003 318.9 263.8 320.7 257.6 C 322.5 251.40000000000003 327.59999999999997 240.20000000000002 329.9 235.10000000000002 C 332.2 230.00000000000003 336.9 219.10000000000002 333.29999999999995 210.10000000000002 C 329.69999999999993 201.00000000000003 320.79999999999995 196.50000000000003 313.29999999999995 194.8 C 305.79999999999995 193.10000000000002 299.99999999999994 194.9 292.9 196.60000000000002 C 285.79999999999995 198.3 281.9 197.40000000000003 279.4 197.50000000000003 C 277 197.60000000000002 277.9 199.50000000000003 278.9 199.90000000000003 C 279.9 200.30000000000004 280.7 200.80000000000004 286.29999999999995 201.40000000000003 C 291.9 202.00000000000003 299.29999999999995 200.60000000000002 301.9 199.30000000000004 C 304.5 198.00000000000003 308.7 197.60000000000005 308.7 197.60000000000005 C 315.8 197.20000000000005 321.4 201.80000000000004 321.4 201.80000000000004 C 327.7 206.90000000000003 329.09999999999997 213.50000000000003 329.2 220.70000000000005 C 329.3 227.90000000000003 327.7 232.80000000000004 321.5 245.30000000000004 C 315.3 257.70000000000005 307.2 280.70000000000005 305.5 285.30000000000007 C 303.8 289.9000000000001 298.5 299.9000000000001 288.4 302.80000000000007 C 278.29999999999995 305.70000000000005 274.4 304.00000000000006 264.5 299.50000000000006 C 254.6 295.00000000000006 247.6 293.30000000000007 241.8 294.50000000000006 C 236 295.6000000000001 233.70000000000002 298.50000000000006 234.10000000000002 304.1000000000001 C 234.60000000000002 309.7000000000001 240.50000000000003 317.2000000000001 250.90000000000003 323.30000000000007 C 261.40000000000003 329.50000000000006 275.90000000000003 327.1000000000001 280.90000000000003 325.9000000000001 C 285.90000000000003 324.7000000000001 297.50000000000006 316.30000000000007 300.8 314.0000000000001 C 304.1 311.8000000000001 320 303.3000000000001 328.5 300.4000000000001 C 332.7 299.0000000000001 337.7 298.4000000000001 342 299.1000000000001 C 347.8 300.00000000000006 349.4 303.00000000000006 347 308.2000000000001 C 344.5 313.6000000000001 337.2 315.7000000000001 337.2 315.7000000000001 C 329.59999999999997 317.8000000000001 323.3 317.4000000000001 315.4 317.6000000000001 C 304 317.80000000000007 290.4 318.9000000000001 284.79999999999995 330.6000000000001 C 284.79999999999995 330.7000000000001 284.69999999999993 330.80000000000007 284.69999999999993 330.9000000000001 C 283.0999999999999 334.4000000000001 282.5999999999999 338.4000000000001 283.29999999999995 342.2000000000001 C 283.79999999999995 345.1000000000001 285.4 351.0000000000001 288.99999999999994 351.6000000000001 C 289.49999999999994 351.7000000000001 289.99999999999994 351.50000000000006 290.29999999999995 351.2000000000001 C 291.4 350.1000000000001 290.29999999999995 348.8000000000001 289.49999999999994 347.9000000000001 C 286.79999999999995 344.9000000000001 285.69999999999993 340.7000000000001 286.29999999999995 336.7000000000001 C 286.9 332.7000000000001 289.19999999999993 329.1000000000001 292.29999999999995 326.6000000000001 C 298.59999999999997 321.6000000000001 306.49999999999994 322.1000000000001 313.99999999999994 322.80000000000007 C 319.29999999999995 323.4000000000001 324.69999999999993 323.9000000000001 329.99999999999994 323.9000000000001 C 336.99999999999994 323.9000000000001 341.79999999999995 323.2000000000001 347.3999999999999 318.7000000000001 C 352.5 314.7 356.8 308.4 356 301.9 z" stroke-linecap="round" />
</g>
<g transform="matrix(6.39 0 0 6.39 506.15 393.24)"  >
<path style="stroke: none; stroke-width: 1; stroke-dasharray: none; stroke-linecap: butt; stroke-dashoffset: 0; stroke-linejoin: miter; stroke-miterlimit: 4; fill: rgb(0,0,0); fill-rule: nonzero; opacity: 1;" vector-effect="non-scaling-stroke"  transform=" translate(-289.79, -249.92)" d="M 273 291.9 C 273 291.9 273.3 291.09999999999997 273.1 288.9 C 272.6 283.4 273.1 277.09999999999997 275.70000000000005 272.2 C 278.30000000000007 267.3 282.70000000000005 263.7 287.30000000000007 260.8 C 291.70000000000005 258.1 299.20000000000005 254.3 303.50000000000006 249.9 C 310.90000000000003 242.3 311.6000000000001 230.3 309.6000000000001 220.4 C 308.80000000000007 216.3 307.00000000000006 212.3 303.7000000000001 209.8 C 301.2000000000001 207.8 297.9000000000001 206.9 294.6000000000001 207.10000000000002 C 284.80000000000007 207.70000000000002 279.50000000000006 216.20000000000002 279.00000000000006 225.20000000000002 C 278.90000000000003 226.4 279.20000000000005 237.9 281.50000000000006 236.60000000000002 C 281.90000000000003 236.3 281.90000000000003 235.90000000000003 281.80000000000007 235.50000000000003 C 281.70000000000005 235.20000000000002 281.70000000000005 234.90000000000003 281.6000000000001 234.60000000000002 C 281.6000000000001 234.3 281.50000000000006 234.10000000000002 281.50000000000006 233.8 C 281.40000000000003 232.70000000000002 281.6000000000001 231.5 281.70000000000005 230.4 C 282.1 226 282.90000000000003 221.6 285.6 218.1 C 288.70000000000005 214.1 293.70000000000005 212.2 298.6 213.9 C 307.6 217 307.20000000000005 228.1 305.90000000000003 235.9 C 304.6 243.70000000000002 299.90000000000003 249.20000000000002 293.00000000000006 252.8 C 291.00000000000006 253.8 281.80000000000007 256.5 276.6000000000001 261.2 C 271.4000000000001 265.9 269.6000000000001 273.09999999999997 269.1000000000001 277.4 C 268.6000000000001 281.7 270.30000000000007 290.09999999999997 271.2000000000001 292 C 272 293.8 273 291.9 273 291.9 z" stroke-linecap="round" />
</g>
</svg>